<?xml version="1.0" encoding="UTF-8"?>
<svg version="1.1" xmlns="http://www.w3.org/2000/svg" width="500" height="500">
<path d="M0 0 C165 0 330 0 500 0 C500 165 500 330 500 500 C335 500 170 500 0 500 C0 335 0 170 0 0 Z " fill="#FEFEFE" transform="translate(0,0)"/>
<path d="M0 0 C2.64986361 1.68516672 5.26574694 3.40333017 7.85546875 5.1796875 C9.17998047 6.07880859 9.17998047 6.07880859 10.53125 6.99609375 C11.19511719 7.53105469 11.85898438 8.06601563 12.54296875 8.6171875 C12.54296875 9.2771875 12.54296875 9.9371875 12.54296875 10.6171875 C13.20296875 10.6171875 13.86296875 10.6171875 14.54296875 10.6171875 C14.54296875 11.2771875 14.54296875 11.9371875 14.54296875 12.6171875 C15.20296875 12.6171875 15.86296875 12.6171875 16.54296875 12.6171875 C29.02286455 26.57665858 31.89240265 43.26096934 31.66796875 61.1796875 C31.6579161 62.58397797 31.6487943 63.98827543 31.640625 65.39257812 C31.61719968 68.80096235 31.58439621 72.2089825 31.54296875 75.6171875 C26.23666055 73.86707243 21.05592405 71.8870423 15.859375 69.8359375 C12.44477291 68.5811014 9.05038026 67.57496359 5.54296875 66.6171875 C5.5171875 65.54082031 5.49140625 64.46445312 5.46484375 63.35546875 C4.95244739 48.4048434 2.48698059 35.4140401 -8.59375 24.515625 C-13.33180285 20.49696237 -18.08273293 17.50671439 -24.45703125 17.6171875 C-33.207789 19.68146882 -40.01113299 25.98346606 -44.76953125 33.3671875 C-50.6076558 43.94878825 -51.05559789 54.80950985 -51.45703125 66.6171875 C-52.51921875 66.93171875 -53.58140625 67.24625 -54.67578125 67.5703125 C-61.9517987 69.76206013 -68.74610736 71.9932886 -75.45703125 75.6171875 C-76.11703125 75.6171875 -76.77703125 75.6171875 -77.45703125 75.6171875 C-78.06068385 51.69164892 -78.01997146 31.46366645 -61.78125 12.0390625 C-54.53371804 4.48701239 -46.53466035 -0.59820446 -36.45703125 -3.3828125 C-35.8338501 -3.5571582 -35.21066895 -3.73150391 -34.56860352 -3.91113281 C-23.81209086 -6.31390567 -9.62359006 -5.41613812 0 0 Z " fill="#12838E" transform="translate(166.45703125,224.3828125)"/>
<path d="M0 0 C2.624378 1.6674894 5.22094757 3.36019681 7.7890625 5.11328125 C8.66046875 5.70109375 9.531875 6.28890625 10.4296875 6.89453125 C12.5390625 8.61328125 12.5390625 8.61328125 13.5390625 11.61328125 C12.19714844 11.37544922 12.19714844 11.37544922 10.828125 11.1328125 C-7.25765435 8.57573219 -25.05166808 9.20355155 -40.53515625 19.44140625 C-42.4609375 20.61328125 -42.4609375 20.61328125 -44.4609375 20.61328125 C-44.4609375 21.27328125 -44.4609375 21.93328125 -44.4609375 22.61328125 C-45.88671875 23.9453125 -45.88671875 23.9453125 -47.7734375 25.42578125 C-50.78888556 27.93361881 -52.62490258 30.10812367 -54.4609375 33.61328125 C-54.83863281 34.14050781 -55.21632813 34.66773438 -55.60546875 35.2109375 C-61.46215731 43.5447753 -63.57662955 53.04934614 -63.5234375 63.11328125 C-63.65625 66.58984375 -63.65625 66.58984375 -64.4609375 69.61328125 C-68.01297208 72.8455185 -72.520151 75.61328125 -77.4609375 75.61328125 C-78.0645901 51.68774267 -78.02387771 31.4597602 -61.78515625 12.03515625 C-54.53762429 4.48310614 -46.5385666 -0.60211071 -36.4609375 -3.38671875 C-35.83775635 -3.56106445 -35.2145752 -3.73541016 -34.57250977 -3.91503906 C-23.81563028 -6.31789386 -9.62159729 -5.42169371 0 0 Z " fill="#1B6F2A" transform="translate(166.4609375,224.38671875)"/>
<path d="M0 0 C1.19044922 0.01353516 2.38089844 0.02707031 3.60742188 0.04101562 C6.50960738 0.07598172 9.41079809 0.12505304 12.3125 0.1875 C11.6525 1.1775 10.9925 2.1675 10.3125 3.1875 C9.3225 3.1875 8.3325 3.1875 7.3125 3.1875 C7.3125 2.5275 7.3125 1.8675 7.3125 1.1875 C6.57 1.6825 5.8275 2.1775 5.0625 2.6875 C2.3125 4.1875 2.3125 4.1875 -1.6875 4.1875 C-1.6875 3.1975 -1.6875 2.2075 -1.6875 1.1875 C-3.9975 1.5175 -6.3075 1.8475 -8.6875 2.1875 C-7.38043474 4.80163053 -6.01271167 5.22373102 -3.4375 6.5625 C0.11906001 8.48542479 3.33983825 10.40662288 6.3125 13.1875 C6.3125 13.8475 6.3125 14.5075 6.3125 15.1875 C6.910625 15.414375 7.50875 15.64125 8.125 15.875 C10.90598403 17.54359042 11.8766916 19.3158832 13.3125 22.1875 C13.3125 22.8475 13.3125 23.5075 13.3125 24.1875 C13.9725 24.1875 14.6325 24.1875 15.3125 24.1875 C19.33515983 31.14514769 19.33515983 31.14514769 19.25 35.0625 C18.3125 37.1875 18.3125 37.1875 15.3125 39.1875 C15.06219023 41.77130177 15.06219023 41.77130177 15.3125 44.1875 C13.8275 44.6825 13.8275 44.6825 12.3125 45.1875 C12.3125 49.1475 12.3125 53.1075 12.3125 57.1875 C11.9825 57.1875 11.6525 57.1875 11.3125 57.1875 C11.28671875 56.11113281 11.2609375 55.03476562 11.234375 53.92578125 C10.72197864 38.9751559 8.25651184 25.9843526 -2.82421875 15.0859375 C-7.5622716 11.06727487 -12.31320168 8.07702689 -18.6875 8.1875 C-27.43825775 10.25178132 -34.24160174 16.55377856 -39 23.9375 C-44.83812455 34.51910075 -45.28606664 45.37982235 -45.6875 57.1875 C-47.29006108 57.69262244 -48.89461792 58.19141627 -50.5 58.6875 C-51.39332031 58.9659375 -52.28664063 59.244375 -53.20703125 59.53125 C-55.6875 60.1875 -55.6875 60.1875 -58.6875 60.1875 C-59.59838569 47.23268137 -57.80230677 33.90334715 -49.03125 23.72265625 C-48.5878125 23.21605469 -48.144375 22.70945312 -47.6875 22.1875 C-47.15125 21.28 -46.615 20.3725 -46.0625 19.4375 C-44.53689911 16.94106218 -42.89109384 15.10675915 -40.6875 13.1875 C-40.0275 13.1875 -39.3675 13.1875 -38.6875 13.1875 C-38.6875 12.5275 -38.6875 11.8675 -38.6875 11.1875 C-36.59224996 9.89976238 -34.48797592 8.63309098 -32.375 7.375 C-31.79943359 7.01857422 -31.22386719 6.66214844 -30.63085938 6.29492188 C-20.87068446 0.54433233 -11.13766909 -0.24389056 0 0 Z " fill="#29C0A9" transform="translate(160.6875,233.8125)"/>
<path d="M0 0 C9.72667366 6.94294551 14.39593972 17.19545652 16.6953125 28.71875 C16.98184496 33.11840965 16.88944116 37.30232292 16.6953125 41.71875 C12.7353125 41.38875 8.7753125 41.05875 4.6953125 40.71875 C4.63923828 39.19507813 4.63923828 39.19507813 4.58203125 37.640625 C4.00302053 21.10951319 4.00302053 21.10951319 -3.3046875 6.71875 C-6.04209126 4.4779257 -6.04209126 4.4779257 -8.7421875 4.78125 C-12.2464802 6.0633083 -13.30078213 7.57929825 -15.3046875 10.71875 C-18.69699689 18.04613829 -19.46109766 25.10416254 -19.3671875 33.09375 C-19.36267578 33.82980469 -19.35816406 34.56585938 -19.35351562 35.32421875 C-19.34183892 37.12243158 -19.32390761 38.92060197 -19.3046875 40.71875 C-25.7396875 41.21375 -25.7396875 41.21375 -32.3046875 41.71875 C-32.47405654 34.35119661 -32.40577575 27.7933003 -30.3046875 20.71875 C-30.12164062 20.05359375 -29.93859375 19.3884375 -29.75 18.703125 C-27.00503509 10.09545726 -20.80265009 2.83921525 -12.9921875 -1.59375 C-8.09986943 -2.84527323 -4.35327749 -2.42012715 0 0 Z " fill="#F2AB26" transform="translate(151.3046875,248.28125)"/>
<path d="M0 0 C1.76273143 1.14733998 3.51290752 2.31420034 5.25 3.5 C6.12140625 4.0878125 6.9928125 4.675625 7.890625 5.28125 C10 7 10 7 11 10 C9.65808594 9.76216797 9.65808594 9.76216797 8.2890625 9.51953125 C-9.79671685 6.96245094 -27.59073058 7.5902703 -43.07421875 17.828125 C-45 19 -45 19 -47 19 C-47 19.66 -47 20.32 -47 21 C-47.66 21 -48.32 21 -49 21 C-48.125 16.25 -48.125 16.25 -47 14 C-44.67843403 13.59270772 -42.3431213 13.25561323 -40 13 C-40 12.01 -40 11.02 -40 10 C-40 9.34 -40 8.68 -40 8 C-42.62875378 8.22754589 -45.25046959 8.48081739 -47.875 8.75 C-48.62136719 8.811875 -49.36773437 8.87375 -50.13671875 8.9375 C-52.57755516 9.16023862 -52.57755516 9.16023862 -56 10 C-57.59582937 11.93121069 -57.59582937 11.93121069 -58 14 C-58.33 13.34 -58.66 12.68 -59 12 C-59.94875 12.515625 -60.8975 13.03125 -61.875 13.5625 C-62.90625 14.036875 -63.9375 14.51125 -65 15 C-65.66 14.67 -66.32 14.34 -67 14 C-51.895148 -5.59548368 -21.80046613 -13.85168078 0 0 Z " fill="#319031" transform="translate(169,226)"/>
<path d="M0 0 C0.33 0 0.66 0 1 0 C1.20405475 5.53215112 1.02043012 10.16128649 -0.5546875 15.5078125 C-1.63422154 21.54941529 -1.13357492 27.8852372 -1 34 C-7.435 34.495 -7.435 34.495 -14 35 C-14.1698279 27.61248643 -14.02240729 21.10651451 -12 14 C-11.71125 12.845 -11.4225 11.69 -11.125 10.5 C-10 8 -10 8 -7.875 7.125 C-7.25625 7.08375 -6.6375 7.0425 -6 7 C-5.67 5.68 -5.34 4.36 -5 3 C-3.68 3 -2.36 3 -1 3 C-0.67 2.01 -0.34 1.02 0 0 Z " fill="#EF8F2C" transform="translate(133,255)"/>
<path d="M0 0 C5.88368797 5.58196038 5.88368797 5.58196038 6.11352539 10.36010742 C6.10828857 11.26607666 6.10305176 12.1720459 6.09765625 13.10546875 C6.09443359 14.08837891 6.09121094 15.07128906 6.08789062 16.08398438 C6.07951172 17.10814453 6.07113281 18.13230469 6.0625 19.1875 C6.05798828 20.22326172 6.05347656 21.25902344 6.04882812 22.32617188 C6.0370401 24.88417266 6.02058515 27.44205733 6 30 C4.39743892 30.50512244 2.79288208 31.00391627 1.1875 31.5 C-0.15248047 31.91765625 -0.15248047 31.91765625 -1.51953125 32.34375 C-4 33 -4 33 -7 33 C-7.80107674 21.60690862 -6.49226144 9.73839216 0 0 Z " fill="#168287" transform="translate(109,261)"/>
<path d="M0 0 C0.10852923 2.87602455 0.1875515 5.74790832 0.25 8.625 C0.30027344 9.83736328 0.30027344 9.83736328 0.3515625 11.07421875 C0.43977062 16.49901793 -0.14571889 19.8441935 -4 24 C-5.65 24.33 -7.3 24.66 -9 25 C-9 21.37 -9 17.74 -9 14 C-9.66 17.3 -10.32 20.6 -11 24 C-15 23 -15 23 -16.25 21.4375 C-17.79490579 16.41655617 -17.68516989 12.51928976 -15.5625 7.8125 C-11.25349887 3.08310852 -6.46995419 0 0 0 Z " fill="#F6A21F" transform="translate(153,189)"/>
<path d="M0 0 C1.65 0 3.3 0 5 0 C6.3271261 3.9813783 6.06915913 7.85045227 6 12 C6.66 12 7.32 12 8 12 C7.938125 10.4221875 7.938125 10.4221875 7.875 8.8125 C7.99147875 5.25989827 8.47208068 3.15133359 10 0 C11.65 0 13.3 0 15 0 C15.66 2.64 16.32 5.28 17 8 C17.99 5.36 18.98 2.72 20 0 C21.65 0 23.3 0 25 0 C23.83445193 6.0509304 22.54656904 12.03466226 21 18 C19.02 18 17.04 18 15 18 C14.34 15.36 13.68 12.72 13 10 C10.4345406 12.5654594 10.45953913 14.47686668 10 18 C8.02 18 6.04 18 4 18 C3.32873871 15.5636811 2.66283646 13.12611117 2 10.6875 C1.71382813 9.65206055 1.71382813 9.65206055 1.421875 8.59570312 C0.62283816 5.64212051 0 3.07440781 0 0 Z " fill="#F4A439" transform="translate(403,247)"/>
<path d="M0 0 C2.5625 1.8125 2.5625 1.8125 4 4 C4 4.99 4 5.98 4 7 C1.625 7.125 1.625 7.125 -1 7 C-1.66 6.34 -2.32 5.68 -3 5 C-4.32 5 -5.64 5 -7 5 C-7.33 6.32 -7.66 7.64 -8 9 C-7.31292969 9.17015625 -6.62585938 9.3403125 -5.91796875 9.515625 C-5.01691406 9.75796875 -4.11585938 10.0003125 -3.1875 10.25 C-1.84751953 10.59804687 -1.84751953 10.59804687 -0.48046875 10.953125 C2.41543237 12.17533209 3.45676415 13.29030495 5 16 C4.86266781 18.81530983 4.48775506 20.39179323 2.71875 22.59765625 C-0.3909526 25.13489087 -4.10094176 25.10944725 -8 25 C-11 23.875 -11 23.875 -13 22 C-13.8125 19.3125 -13.8125 19.3125 -14 17 C-12.35 17 -10.7 17 -9 17 C-8.67 17.66 -8.34 18.32 -8 19 C-5.69 19 -3.38 19 -1 19 C-1 18.34 -1 17.68 -1 17 C-2.03060547 16.63648438 -2.03060547 16.63648438 -3.08203125 16.265625 C-3.98308594 15.93046875 -4.88414062 15.5953125 -5.8125 15.25 C-6.70582031 14.92515625 -7.59914062 14.6003125 -8.51953125 14.265625 C-11.29063515 12.85170742 -12.46514058 11.68600398 -14 9 C-13.93162168 5.64946212 -13.60590442 3.75738053 -11.5 1.125 C-7.69171686 -0.58872741 -4.1018779 -0.69242709 0 0 Z " fill="#206178" transform="translate(224,241)"/>
<path d="M0 0 C3.07504636 2.02822207 4.66581629 3.49753176 5.48046875 7.16015625 C5.73821164 11.33280468 5.29532191 13.52367433 3.0625 17.125 C-0.68728514 19.42078682 -2.73318453 19.41190352 -6.97265625 18.62890625 C-9 18 -9 18 -11.0625 16.5 C-12.51835003 12.61773326 -12.76233661 9.08031593 -12 5 C-8.68934065 0.08417248 -5.82075974 -1.03942138 0 0 Z " fill="#F0A037" transform="translate(396,247)"/>
<path d="M0 0 C2.9375 1.9375 2.9375 1.9375 5 5 C5.76541544 9.09679504 5.54785561 12.63036098 4 16.5 C0.90839825 18.81870132 -2.16970922 19.33599042 -6 19 C-8.85993478 17.23535939 -10.49782849 16.00434303 -12 13 C-12.4200542 5.43902439 -12.4200542 5.43902439 -10 2 C-6.24952518 -0.50031654 -4.44143734 -0.53603554 0 0 Z " fill="#26647A" transform="translate(281,247)"/>
<path d="M0 0 C1.65 0 3.3 0 5 0 C5.33 2.31 5.66 4.62 6 7 C7.093125 6.773125 8.18625 6.54625 9.3125 6.3125 C13 6 13 6 14.71875 7 C16.68179276 10.06426187 16.31533921 13.17683868 16.1875 16.6875 C16.16719727 17.7403418 16.16719727 17.7403418 16.14648438 18.81445312 C16.11120182 20.54329829 16.05739583 22.27174765 16 24 C14.35 24 12.7 24 11 24 C10.67 19.71 10.34 15.42 10 11 C8.68 11.33 7.36 11.66 6 12 C5.67 15.96 5.34 19.92 5 24 C3.35 24 1.7 24 0 24 C0 16.08 0 8.16 0 0 Z " fill="#316B7E" transform="translate(250,241)"/>
<path d="M0 0 C2.20703125 1.5703125 2.20703125 1.5703125 4 4 C4.390625 7.453125 4.390625 7.453125 4.25 11.25 C4.21390625 12.51328125 4.1778125 13.7765625 4.140625 15.078125 C4.07101562 16.52445312 4.07101562 16.52445312 4 18 C2.90042969 17.98582031 1.80085938 17.97164063 0.66796875 17.95703125 C-2.87001174 17.85389793 -2.87001174 17.85389793 -5.6875 18.6875 C-8 19 -8 19 -10.3125 17.5625 C-10.869375 17.046875 -11.42625 16.53125 -12 16 C-11.25 10.25 -11.25 10.25 -9 8 C-6.31160615 7.73008094 -3.70858064 7.91262643 -1 8 C-1.33 7.01 -1.66 6.02 -2 5 C-6.455 5.495 -6.455 5.495 -11 6 C-9.386085 -0.45566001 -6.11787183 -0.64398651 0 0 Z " fill="#105977" transform="translate(309,247)"/>
<path d="M0 0 C1.65 0 3.3 0 5 0 C7.20536179 4.0271824 8.45660208 7.43545749 9 12 C9.20496094 11.21753906 9.40992188 10.43507813 9.62109375 9.62890625 C9.89050781 8.61699219 10.15992188 7.60507813 10.4375 6.5625 C10.70433594 5.55316406 10.97117187 4.54382813 11.24609375 3.50390625 C12 1 12 1 13 0 C14.66617115 -0.04063832 16.33388095 -0.042721 18 0 C14.51355707 18.70001209 14.51355707 18.70001209 9.0078125 23.87109375 C6.52666629 25.2661351 4.80254171 25.23354514 2 25 C2 23.68 2 22.36 2 21 C2.99 20.67 3.98 20.34 5 20 C4.39020164 15.71215467 3.36908589 11.83438126 1.9375 7.75 C0 2.20640569 0 2.20640569 0 0 Z " fill="#205C75" transform="translate(337,247)"/>
<path d="M0 0 C5.28 0 10.56 0 16 0 C16 1.65 16 3.3 16 5 C12.37 5 8.74 5 5 5 C5 6.98 5 8.96 5 11 C8.3 11 11.6 11 15 11 C15 12.32 15 13.64 15 15 C11.7 15 8.4 15 5 15 C5 17.97 5 20.94 5 24 C3.35 24 1.7 24 0 24 C0 16.08 0 8.16 0 0 Z " fill="#F59C24" transform="translate(357,241)"/>
<path d="M0 0 C4.8 3.32307692 4.8 3.32307692 5.8125 6.75 C5.874375 7.4925 5.93625 8.235 6 9 C6.66 9 7.32 9 8 9 C12.02265983 15.95764769 12.02265983 15.95764769 11.9375 19.875 C11 22 11 22 8 24 C7.74969023 26.58380177 7.74969023 26.58380177 8 29 C7.01 29.33 6.02 29.66 5 30 C5 33.96 5 37.92 5 42 C4.67 42 4.34 42 4 42 C3.97421875 40.92363281 3.9484375 39.84726562 3.921875 38.73828125 C3.58877868 29.20449483 2.2183296 21.051552 -1 12 C-2.47433144 7.49275815 -1.27203534 4.48953649 0 0 Z " fill="#1AA4A5" transform="translate(168,249)"/>
<path d="M0 0 C2.89738241 1.74833503 5.52836576 3.68612965 8 6 C8 6.33 8 6.66 8 7 C6.35 7 4.7 7 3 7 C2.67 7.99 2.34 8.98 2 10 C1.113125 9.319375 0.22625 8.63875 -0.6875 7.9375 C-3.73834609 5.79427489 -3.73834609 5.79427489 -6.625 5.9375 C-9.74737761 7.33435314 -11.04455142 9.23540028 -13 12 C-13.66 12.66 -14.32 13.32 -15 14 C-15.33 12.35 -15.66 10.7 -16 9 C-16.33 9.66 -16.66 10.32 -17 11 C-17.66 11.144375 -18.32 11.28875 -19 11.4375 C-19.66 11.623125 -20.32 11.80875 -21 12 C-21.33 12.99 -21.66 13.98 -22 15 C-22.99 15.33 -23.98 15.66 -25 16 C-22.7039824 9.40331998 -17.87352329 3.03978398 -11.5 -0.125 C-7.35882079 -1.1602948 -4.02178017 -1.40648267 0 0 Z " fill="#F5C11A" transform="translate(149,247)"/>
<path d="M0 0 C0.66 0.33 1.32 0.66 2 1 C1.67 1.99 1.34 2.98 1 4 C1.99 4.33 2.98 4.66 4 5 C2.89332893 8.21940676 1.4682007 10.8353297 -0.4375 13.625 C-3.52927464 18.39987089 -4.75622357 23.4990701 -6 29 C-8.41445371 25.97060499 -9.46292236 23.86695903 -10 20 C-10.66 20.66 -11.32 21.32 -12 22 C-12.37004405 14.47577093 -12.37004405 14.47577093 -10.6875 12.3125 C-10.130625 11.879375 -9.57375 11.44625 -9 11 C-8.525625 10.195625 -8.05125 9.39125 -7.5625 8.5625 C-5.95782194 5.93082798 -4.32023371 4.02084871 -2 2 C-1.34 2 -0.68 2 0 2 C0 1.34 0 0.68 0 0 Z " fill="#1FA48F" transform="translate(122,245)"/>
<path d="M0 0 C2.4375 1.8125 2.4375 1.8125 4 4 C4 4.99 4 5.98 4 7 C2.35 7 0.7 7 -1 7 C-1.33 6.34 -1.66 5.68 -2 5 C-3.32 5.33 -4.64 5.66 -6 6 C-6 8.31 -6 10.62 -6 13 C-4.35 13.33 -2.7 13.66 -1 14 C-1 13.34 -1 12.68 -1 12 C0.65 12 2.3 12 4 12 C3.69542509 14.94422416 3.16507321 15.85920226 0.875 17.8125 C-2.90237293 19.37271925 -5.08980488 19.08616531 -9 18 C-11.77376061 15.11657909 -12.45166927 12.96311971 -12.5 9 C-12.37645351 5.35806421 -12.25208673 4.32083766 -9.9375 1.375 C-6.27526509 -0.33923762 -4.0001851 -0.58184511 0 0 Z " fill="#2D697F" transform="translate(243,247)"/>
<path d="M0 0 C2.31 0.33 4.62 0.66 7 1 C8.69832609 6.83799592 9.25287193 11.93107371 9 18 C4.9715651 18.18311068 2.51624755 17.94158017 -1 16 C-1.02712153 14.083412 -1.04645097 12.1667127 -1.0625 10.25 C-1.07410156 9.18265625 -1.08570313 8.1153125 -1.09765625 7.015625 C-1.01510087 4.46631499 -0.74617558 2.42066409 0 0 Z " fill="#F28C22" transform="translate(158,271)"/>
<path d="M0 0 C0.33 0 0.66 0 1 0 C1.05416188 1.60379341 1.09286638 3.20811406 1.125 4.8125 C1.14820313 5.70582031 1.17140625 6.59914063 1.1953125 7.51953125 C1 10 1 10 -1 13 C-4.125 13.1875 -4.125 13.1875 -7 13 C-7.103125 13.639375 -7.20625 14.27875 -7.3125 14.9375 C-7.539375 15.618125 -7.76625 16.29875 -8 17 C-8.99 17.33 -9.98 17.66 -11 18 C-11.66 23.28 -12.32 28.56 -13 34 C-12.34 34.33 -11.68 34.66 -11 35 C-11.99 35 -12.98 35 -14 35 C-14.22290855 27.68116935 -14.00850057 21.05764784 -12 14 C-11.71125 12.845 -11.4225 11.69 -11.125 10.5 C-10 8 -10 8 -7.875 7.125 C-7.25625 7.08375 -6.6375 7.0425 -6 7 C-5.67 5.68 -5.34 4.36 -5 3 C-3.68 3 -2.36 3 -1 3 C-0.67 2.01 -0.34 1.02 0 0 Z " fill="#F0A732" transform="translate(133,255)"/>
<path d="M0 0 C0.66 0 1.32 0 2 0 C2 1.32 2 2.64 2 4 C3.32 4 4.64 4 6 4 C6.33 7.63 6.66 11.26 7 15 C6.34 15 5.68 15 5 15 C5 15.99 5 16.98 5 18 C5.99 18 6.98 18 8 18 C8 17.34 8 16.68 8 16 C8.66 16 9.32 16 10 16 C10 15.01 10 14.02 10 13 C10.66 13 11.32 13 12 13 C10.75023244 16.65316671 10.32901247 17.78065836 7 20 C6.01 20 5.02 20 4 20 C4 16.37 4 12.74 4 9 C3.34 12.3 2.68 15.6 2 19 C-2 18 -2 18 -3.25 16.4375 C-4.33337956 12.91651645 -4.58203287 9.61691858 -4 6 C-2.125 2.5 -2.125 2.5 0 0 Z " fill="#F29E3B" transform="translate(140,194)"/>
<path d="M0 0 C0.99 0 1.98 0 3 0 C3.66 2.64 4.32 5.28 5 8 C7.64 8 10.28 8 13 8 C13 5.36 13 2.72 13 0 C14.32 0 15.64 0 17 0 C17.46702927 4.76369856 17.64062965 7.96672637 15.0625 12.125 C11.31271486 14.42078682 9.26681547 14.41190352 5.02734375 13.62890625 C3 13 3 13 0.9375 11.5 C-0.48770767 7.69944622 -0.231449 4.01178261 0 0 Z " fill="#F19B34" transform="translate(384,252)"/>
<path d="M0 0 C1.65 0 3.3 0 5 0 C5 7.92 5 15.84 5 24 C3.35 24 1.7 24 0 24 C0 16.08 0 8.16 0 0 Z " fill="#F19A30" transform="translate(376,241)"/>
<path d="M0 0 C1.65 0 3.3 0 5 0 C5 7.92 5 15.84 5 24 C3.35 24 1.7 24 0 24 C0 16.08 0 8.16 0 0 Z " fill="#185A73" transform="translate(330,241)"/>
<path d="M0 0 C0.33 0 0.66 0 1 0 C1 7.92 1 15.84 1 24 C-2 20 -2 20 -2 18 C-3.65 18 -5.3 18 -7 18 C-7 18.66 -7 19.32 -7 20 C-8.66611905 20.042721 -10.33382885 20.04063832 -12 20 C-13 19 -13 19 -13.1875 15.5625 C-13 12 -13 12 -11 10 C-8.875 10.375 -8.875 10.375 -7 11 C-7 11.66 -7 12.32 -7 13 C-5.35 13 -3.7 13 -2 13 C-0.71553081 10.43106162 -0.67022856 8.23423663 -0.4375 5.375 C-0.35371094 4.37210938 -0.26992187 3.36921875 -0.18359375 2.3359375 C-0.12300781 1.56507813 -0.06242188 0.79421875 0 0 Z " fill="#F1F5F6" transform="translate(249,241)"/>
<path d="M0 0 C1.65 0 3.3 0 5 0 C5 7.92 5 15.84 5 24 C3.35 24 1.7 24 0 24 C0 16.08 0 8.16 0 0 Z " fill="#3B6E82" transform="translate(289,241)"/>
<path d="M0 0 C-0.66 0.66 -1.32 1.32 -2 2 C-2.99 2 -3.98 2 -5 2 C-5.33 2.66 -5.66 3.32 -6 4 C-8.5625 4.625 -8.5625 4.625 -11 5 C-11.020625 5.928125 -11.04125 6.85625 -11.0625 7.8125 C-11.371875 8.864375 -11.68125 9.91625 -12 11 C-15.4375 12.625 -15.4375 12.625 -19 14 C-20.4818964 16.0351761 -20.4818964 16.0351761 -21 18 C-21.33 17.34 -21.66 16.68 -22 16 C-22.94875 16.515625 -23.8975 17.03125 -24.875 17.5625 C-25.90625 18.036875 -26.9375 18.51125 -28 19 C-28.66 18.67 -29.32 18.34 -30 18 C-24.82672725 11.28872725 -9.51867022 -4.75933511 0 0 Z " fill="#2C8930" transform="translate(132,222)"/>
<path d="M0 0 C0.33 0 0.66 0 1 0 C1 8.58 1 17.16 1 26 C-3.35198929 24.5493369 -7.6030936 23.0314535 -11.875 21.375 C-13.02742187 20.92898438 -14.17984375 20.48296875 -15.3671875 20.0234375 C-16.23601562 19.68570312 -17.10484375 19.34796875 -18 19 C-17.505 17.515 -17.505 17.515 -17 16 C-16.01 15.67 -15.02 15.34 -14 15 C-13.34 14.01 -12.68 13.02 -12 12 C-11.01 13.98 -10.02 15.96 -9 18 C-9 17.01 -9 16.02 -9 15 C-8.01 14.67 -7.02 14.34 -6 14 C-5.87625 14.7425 -5.7525 15.485 -5.625 16.25 C-5.04513299 18.80141485 -4.26291261 20.7267573 -3 23 C-0.51942372 20.51942372 -0.70980995 19.63807536 -0.5859375 16.2109375 C-0.54726562 15.26992188 -0.50859375 14.32890625 -0.46875 13.359375 C-0.4378125 12.37453125 -0.406875 11.3896875 -0.375 10.375 C-0.33632812 9.38242187 -0.29765625 8.38984375 -0.2578125 7.3671875 C-0.1633686 4.91164615 -0.07780125 2.4561159 0 0 Z " fill="#1B5870" transform="translate(197,274)"/>
<path d="M0 0 C1.32 0 2.64 0 4 0 C5.03387512 8.0125322 5.10466648 15.92905177 5 24 C3.35 24 1.7 24 0 24 C0 16.08 0 8.16 0 0 Z " fill="#185F77" transform="translate(250,241)"/>
<path d="M0 0 C1.32 0 2.64 0 4 0 C4 0.66 4 1.32 4 2 C4.99 1.34 5.98 0.68 7 0 C8.32 0 9.64 0 11 0 C11 1.65 11 3.3 11 5 C9.02 5.66 7.04 6.32 5 7 C4.67 10.63 4.34 14.26 4 18 C2.68 18 1.36 18 0 18 C0 12.06 0 6.12 0 0 Z " fill="#0F5670" transform="translate(317,247)"/>
<path d="M0 0 C1.65 0 3.3 0 5 0 C6.3271261 3.9813783 6.06915913 7.85045227 6 12 C6.66 12 7.32 12 8 12 C8.33 10.35 8.66 8.7 9 7 C9.66 7 10.32 7 11 7 C10.67 10.63 10.34 14.26 10 18 C8.02 18 6.04 18 4 18 C3.32873871 15.5636811 2.66283646 13.12611117 2 10.6875 C1.71382813 9.65206055 1.71382813 9.65206055 1.421875 8.59570312 C0.62283816 5.64212051 0 3.07440781 0 0 Z " fill="#F1A036" transform="translate(403,247)"/>
<path d="M0 0 C0.33 0 0.66 0 1 0 C1 3.96 1 7.92 1 12 C-0.051875 11.979375 -1.10375 11.95875 -2.1875 11.9375 C-5.84660223 11.8500798 -5.84660223 11.8500798 -8.6875 12.6875 C-11 13 -11 13 -13.3125 11.5625 C-13.869375 11.046875 -14.42625 10.53125 -15 10 C-14.67 8.02 -14.34 6.04 -14 4 C-12.0625 4.3125 -12.0625 4.3125 -10 5 C-9.67 5.99 -9.34 6.98 -9 8 C-7.02463255 7.65213292 -7.02463255 7.65213292 -5 7 C-4.67 6.34 -4.34 5.68 -4 5 C-3.01 4.67 -2.02 4.34 -1 4 C-0.26676204 1.98491642 -0.26676204 1.98491642 0 0 Z " fill="#2B6479" transform="translate(312,253)"/>
<path d="M0 0 C0.99 0.495 0.99 0.495 2 1 C2 1.99 2 2.98 2 4 C4.97 4.495 4.97 4.495 8 5 C9.32561852 11.38707103 9.32561852 11.38707103 7.9375 14 C6 15 6 15 0 14 C0 9.38 0 4.76 0 0 Z " fill="#676767" transform="translate(294,276)"/>
<path d="M0 0 C0.99 0 1.98 0 3 0 C3 0.66 3 1.32 3 2 C5.64 2 8.28 2 11 2 C13.21211746 9.05112439 13.20177072 15.64657821 13 23 C11.68 22.67 10.36 22.34 9 22 C9.99 22 10.98 22 12 22 C11.855625 21.19175781 11.71125 20.38351562 11.5625 19.55078125 C11.376875 18.48214844 11.19125 17.41351563 11 16.3125 C10.814375 15.25675781 10.62875 14.20101563 10.4375 13.11328125 C10.04931926 10.35095938 9.91740024 7.78257957 10 5 C8.35 5.33 6.7 5.66 5 6 C5 5.34 5 4.68 5 4 C4.34 4 3.68 4 3 4 C2.67 9.28 2.34 14.56 2 20 C3.32 20.33 4.64 20.66 6 21 C6 21.33 6 21.66 6 22 C4.35 22 2.7 22 1 22 C0.67 14.74 0.34 7.48 0 0 Z " fill="#EAA54F" transform="translate(155,267)"/>
<path d="M0 0 C1.670625 0.8971875 1.670625 0.8971875 3.375 1.8125 C4.00148437 2.14894531 4.62796875 2.48539063 5.2734375 2.83203125 C7 4 7 4 9 7 C9.3125 10 9.3125 10 9 13 C7.48046875 14.6875 7.48046875 14.6875 6 16 C3 12 0 8 -3 4 C-2.01 3.67 -1.02 3.34 0 3 C0 2.01 0 1.02 0 0 Z " fill="#25B4AA" transform="translate(159,242)"/>
<path d="M0 0 C0.33 0 0.66 0 1 0 C1 4.62 1 9.24 1 14 C-5 15 -5 15 -6.875 13.875 C-8.36570003 11.39049995 -8.35688862 9.85510892 -8 7 C-7.34 6.01 -6.68 5.02 -6 4 C-3.03 4.495 -3.03 4.495 0 5 C0 3.35 0 1.7 0 0 Z " fill="#575757" transform="translate(269,276)"/>
<path d="M0 0 C0.99 0.33 1.98 0.66 3 1 C3.33 3.97 3.66 6.94 4 10 C6.97 10.495 6.97 10.495 10 11 C10.33 11.99 10.66 12.98 11 14 C7.97550563 14.65272208 5.09996184 15.11204681 2 15 C-0.5625 13 -0.5625 13 -2 10 C-2.45793285 5.57331583 -2.4915904 3.7373856 0 0 Z " fill="#115873" transform="translate(271,250)"/>
<path d="M0 0 C5.44047757 2.57706832 10.28113362 5.24416758 15 9 C15.33 9.99 15.66 10.98 16 12 C15.07058594 11.84660156 14.14117187 11.69320312 13.18359375 11.53515625 C8.16393411 10.81806202 3.12412066 10.64854502 -1.9375 10.4375 C-2.90751953 10.39431641 -3.87753906 10.35113281 -4.87695312 10.30664062 C-7.25118601 10.20137907 -9.62550921 10.09924293 -12 10 C-12 9.67 -12 9.34 -12 9 C-7.64667264 8.15976812 -3.55557481 7.89229005 0.875 7.9375 C2.02742187 7.94652344 3.17984375 7.95554688 4.3671875 7.96484375 C5.23601562 7.97644531 6.10484375 7.98804688 7 8 C6.67 7.01 6.34 6.02 6 5 C2.48809191 3.77030122 2.48809191 3.77030122 -1 3 C-0.67 2.01 -0.34 1.02 0 0 Z " fill="#31944C" transform="translate(164,224)"/>
<path d="M0 0 C5.28 0 10.56 0 16 0 C16 1.65 16 3.3 16 5 C12.7 5 9.4 5 6 5 C6 4.67 6 4.34 6 4 C9.465 3.505 9.465 3.505 13 3 C9.37 2.67 5.74 2.34 2 2 C2.020625 3.77375 2.04125 5.5475 2.0625 7.375 C2.06915329 12.97707006 1.68838855 18.443721 1 24 C0.67 24 0.34 24 0 24 C0 16.08 0 8.16 0 0 Z " fill="#EAB266" transform="translate(357,241)"/>
<path d="M0 0 C5.12583611 -0.10251672 9.94997778 -0.03590199 15 1 C12.10306808 2.50854058 9.17983974 3.7234872 6.125 4.875 C1.97241916 6.50418363 -1.36155857 8.453091 -5 11 C-5.66 11 -6.32 11 -7 11 C-7 11.66 -7 12.32 -7 13 C-7.66 13 -8.32 13 -9 13 C-8.125 8.25 -8.125 8.25 -7 6 C-4.67843403 5.59270772 -2.3431213 5.25561323 0 5 C0 4.01 0 3.02 0 2 C0 1.34 0 0.68 0 0 Z " fill="#269541" transform="translate(129,234)"/>
<path d="M0 0 C1.74506836 0.00966797 1.74506836 0.00966797 3.52539062 0.01953125 C4.74033203 0.03628906 5.95527344 0.05304688 7.20703125 0.0703125 C8.43357422 0.07933594 9.66011719 0.08835938 10.92382812 0.09765625 C13.9559242 0.12125233 16.98763063 0.15417409 20.01953125 0.1953125 C19.02953125 1.6803125 19.02953125 1.6803125 18.01953125 3.1953125 C17.02953125 3.1953125 16.03953125 3.1953125 15.01953125 3.1953125 C15.01953125 2.5353125 15.01953125 1.8753125 15.01953125 1.1953125 C14.27703125 1.6903125 13.53453125 2.1853125 12.76953125 2.6953125 C10.01953125 4.1953125 10.01953125 4.1953125 6.01953125 4.1953125 C6.01953125 3.2053125 6.01953125 2.2153125 6.01953125 1.1953125 C3.70953125 1.5253125 1.39953125 1.8553125 -0.98046875 2.1953125 C-0.65046875 3.1853125 -0.32046875 4.1753125 0.01953125 5.1953125 C-2.95046875 4.2053125 -5.92046875 3.2153125 -8.98046875 2.1953125 C-5.48710057 -0.13359962 -4.1203901 -0.04019893 0 0 Z " fill="#26AC96" transform="translate(152.98046875,233.8046875)"/>
<path d="M0 0 C2.14576637 -0.02685938 4.29162645 -0.04633088 6.4375 -0.0625 C7.63246094 -0.07410156 8.82742188 -0.08570313 10.05859375 -0.09765625 C13 0 13 0 14 1 C14.07179964 2.51928038 14.08392007 4.04167482 14.0625 5.5625 C14.05347656 6.38878906 14.04445313 7.21507812 14.03515625 8.06640625 C14.02355469 8.70449219 14.01195312 9.34257812 14 10 C13.67 10 13.34 10 13 10 C12.67 7.69 12.34 5.38 12 3 C11.01 3 10.02 3 9 3 C8.67 5.64 8.34 8.28 8 11 C7.34 11 6.68 11 6 11 C6 8.03 6 5.06 6 2 C5.01 2.33 4.02 2.66 3 3 C2.67 5.31 2.34 7.62 2 10 C1.34 10 0.68 10 0 10 C0 6.7 0 3.4 0 0 Z " fill="#6C6C6C" transform="translate(394,280)"/>
<path d="M0 0 C2.5 0.25 2.5 0.25 4.5 2.25 C4.5 3.57 4.5 4.89 4.5 6.25 C2.19 6.25 -0.12 6.25 -2.5 6.25 C-2.17 6.91 -1.84 7.57 -1.5 8.25 C0.15 8.25 1.8 8.25 3.5 8.25 C3.17 9.24 2.84 10.23 2.5 11.25 C0.125 11.4375 0.125 11.4375 -2.5 11.25 C-4.80163882 7.79754176 -4.84490322 6.30261287 -4.5 2.25 C-2.5 0.25 -2.5 0.25 0 0 Z " fill="#7D7E7E" transform="translate(387.5,279.75)"/>
<path d="M0 0 C1.98 0.66 3.96 1.32 6 2 C6.33 1.34 6.66 0.68 7 0 C6.67 4.29 6.34 8.58 6 13 C2 12 2 12 0.75 10.4375 C-0.34127575 6.89085382 -0.12349053 3.70471601 0 0 Z " fill="#EF9144" transform="translate(136,200)"/>
<path d="M0 0 C0.66 0.33 1.32 0.66 2 1 C1.2884375 1.5878125 1.2884375 1.5878125 0.5625 2.1875 C-1.35179633 4.40808374 -1.61266988 6.13375709 -2 9 C-2.639375 9.103125 -3.27875 9.20625 -3.9375 9.3125 C-4.9584375 9.6528125 -4.9584375 9.6528125 -6 10 C-6.33 10.99 -6.66 11.98 -7 13 C-7.99 13.33 -8.98 13.66 -10 14 C-8.62815653 9.93501119 -6.77931541 7.32603439 -3.875 4.1875 C-3.15054688 3.39730469 -2.42609375 2.60710937 -1.6796875 1.79296875 C-1.12539062 1.20128906 -0.57109375 0.60960937 0 0 Z M8 4 C7.236875 4.5775 6.47375 5.155 5.6875 5.75 C3.33799083 7.71703093 1.70676495 9.48476744 0 12 C-0.33 9.69 -0.66 7.38 -1 5 C2.42632833 3.38201162 4.38055101 2.65946334 8 4 Z " fill="#F2B83A" transform="translate(134,249)"/>
<path d="M0 0 C4.75 0.875 4.75 0.875 7 2 C6.67 4.97 6.34 7.94 6 11 C5.01 11.33 4.02 11.66 3 12 C3 15.96 3 19.92 3 24 C2.67 24 2.34 24 2 24 C1.93941406 22.85402344 1.87882813 21.70804687 1.81640625 20.52734375 C1.73193011 18.99738703 1.64728573 17.46743959 1.5625 15.9375 C1.52318359 15.18533203 1.48386719 14.43316406 1.44335938 13.65820312 C1.18419281 9.05301259 0.7200579 4.55633276 0 0 Z " fill="#349AA3" transform="translate(170,267)"/>
<path d="M0 0 C2.625 0.375 2.625 0.375 5 1 C5.33 2.65 5.66 4.3 6 6 C3.69 6 1.38 6 -1 6 C-0.67 6.66 -0.34 7.32 0 8 C1.98 8 3.96 8 6 8 C5.01 9.485 5.01 9.485 4 11 C1.625 10.6875 1.625 10.6875 -1 10 C-3 7 -3 7 -2.75 4.4375 C-2 2 -2 2 0 0 Z " fill="#656565" transform="translate(253,280)"/>
<path d="M0 0 C0.66 0 1.32 0 2 0 C3.60352174 4.81056523 4.00209358 6.79288181 2.5625 11.6875 C2.27503906 12.68136719 1.98757812 13.67523438 1.69140625 14.69921875 C1.46324219 15.45847656 1.23507813 16.21773438 1 17 C-1.41445371 13.97060499 -2.46292236 11.86695903 -3 8 C-3.66 8.66 -4.32 9.32 -5 10 C-4.75 7.625 -4.75 7.625 -4 5 C-1.9375 3.6875 -1.9375 3.6875 0 3 C0 2.01 0 1.02 0 0 Z " fill="#1F9996" transform="translate(115,257)"/>
<path d="M0 0 C3.53571429 0.53571429 3.53571429 0.53571429 5 2 C5.125 5.5 5.125 5.5 5 9 C4 10 4 10 1.4375 10.0625 C0.633125 10.041875 -0.17125 10.02125 -1 10 C-2.38125018 7.23749964 -2.19079306 5.05268901 -2 2 C-1.34 1.34 -0.68 0.68 0 0 Z " fill="#FBF4E9" transform="translate(391,251)"/>
<path d="M0 0 C3.53571429 0.53571429 3.53571429 0.53571429 5 2 C5.23529412 7.52941176 5.23529412 7.52941176 4 10 C2.33388095 10.042721 0.66617115 10.04063832 -1 10 C-2 9 -2 9 -2.1875 5.5625 C-2 2 -2 2 0 0 Z " fill="#EFF3F5" transform="translate(276,251)"/>
<path d="M0 0 C1.65 0 3.3 0 5 0 C5.66 3.3 6.32 6.6 7 10 C5.02 10 3.04 10 1 10 C1 9.01 1 8.02 1 7 C0.34 7 -0.32 7 -1 7 C-1.33 7.66 -1.66 8.32 -2 9 C-1.51421457 5.87709365 -1.0013988 3.00419641 0 0 Z " fill="#F6A843" transform="translate(413,247)"/>
<path d="M0 0 C0.94875 0.04125 1.8975 0.0825 2.875 0.125 C2.875 1.115 2.875 2.105 2.875 3.125 C1.225 2.795 -0.425 2.465 -2.125 2.125 C-2.455 3.115 -2.785 4.105 -3.125 5.125 C-1.701875 5.3415625 -1.701875 5.3415625 -0.25 5.5625 C2.875 6.125 2.875 6.125 4.875 7.125 C5.0625 9.5 5.0625 9.5 4.875 12.125 C1.64708445 14.2769437 0.59099191 14.32586443 -3.125 14.125 C-3.785 12.805 -4.445 11.485 -5.125 10.125 C-2.815 10.455 -0.505 10.785 1.875 11.125 C1.545 10.135 1.215 9.145 0.875 8.125 C0.05 7.815625 -0.775 7.50625 -1.625 7.1875 C-4.125 6.125 -4.125 6.125 -5.0625 4.125 C-5.083125 3.465 -5.10375 2.805 -5.125 2.125 C-3.125 0.125 -3.125 0.125 0 0 Z " fill="#646464" transform="translate(350.125,276.875)"/>
<path d="M0 0 C0.66 0 1.32 0 2 0 C2 6.93 2 13.86 2 21 C1.01 21.33 0.02 21.66 -1 22 C-1.0270817 19.27076612 -1.04687847 16.54180363 -1.0625 13.8125 C-1.07087891 13.04357422 -1.07925781 12.27464844 -1.08789062 11.48242188 C-1.10491934 7.51473211 -0.98604115 3.87428766 0 0 Z " fill="#0F5673" transform="translate(291,243)"/>
<path d="M0 0 C0.33 0 0.66 0 1 0 C1.33 2.64 1.66 5.28 2 8 C4.07553648 8.5534764 5.84365964 9 8 9 C8.99 9 9.98 9 11 9 C11 7.35 11 5.7 11 4 C11.33 4 11.66 4 12 4 C12 6.31 12 8.62 12 11 C10.56445975 11.50559908 9.1264798 12.0042749 7.6875 12.5 C6.88699219 12.7784375 6.08648437 13.056875 5.26171875 13.34375 C3 14 3 14 0 14 C0 9.38 0 4.76 0 0 Z " fill="#196B7B" transform="translate(102,280)"/>
<path d="M0 0 C3.79588866 0.54226981 5.47211993 2.20127563 8 5 C5.37239822 6.31380089 3.49726961 6.02527594 0.5625 5.9375 C-4.67024933 5.88103148 -9.39649132 6.50279242 -14.5078125 7.5546875 C-17.74360959 8.13287068 -20.72359691 8.14561791 -24 8 C-21.0654078 6.36770675 -18.55251879 5.61638085 -15.234375 5.1484375 C-14.34492188 5.01953125 -13.45546875 4.890625 -12.5390625 4.7578125 C-11.15847656 4.56832031 -11.15847656 4.56832031 -9.75 4.375 C-8.34621094 4.17390625 -8.34621094 4.17390625 -6.9140625 3.96875 C-4.61018055 3.63962401 -2.30558476 3.31693851 0 3 C0 2.01 0 1.02 0 0 Z " fill="#278E36" transform="translate(164,227)"/>
<path d="M0 0 C0.33 0 0.66 0 1 0 C0.67 7.59 0.34 15.18 0 23 C-1.65 23.33 -3.3 23.66 -5 24 C-5 20.79604584 -4.25664978 18.90600261 -3 16 C-2.34 16 -1.68 16 -1 16 C-1.01160156 15.34773438 -1.02320312 14.69546875 -1.03515625 14.0234375 C-1.08470994 9.2238086 -0.99413751 4.72215315 0 0 Z " fill="#06562E" transform="translate(102,271)"/>
<path d="M0 0 C0.33 0.66 0.66 1.32 1 2 C1.66 2 2.32 2 3 2 C3 2.66 3 3.32 3 4 C3.66 4 4.32 4 5 4 C5 3.01 5 2.02 5 1 C5.66 1 6.32 1 7 1 C7 3.97 7 6.94 7 10 C5.02 10 3.04 10 1 10 C-0.60725635 6.78548731 -0.05748185 3.56387464 0 0 Z " fill="#F0952A" transform="translate(417,255)"/>
<path d="M0 0 C0.66 0 1.32 0 2 0 C2.33 3.3 2.66 6.6 3 10 C4.65614657 10.38218767 6.32457024 10.71395102 8 11 C9.66342837 9.33657163 9.36048097 7.2174291 9.5625 4.9375 C9.64628906 4.01839844 9.73007813 3.09929687 9.81640625 2.15234375 C9.87699219 1.44207031 9.93757812 0.73179687 10 0 C10.33 0 10.66 0 11 0 C11.08114106 1.77007714 11.13925505 3.54122098 11.1875 5.3125 C11.22230469 6.29863281 11.25710937 7.28476562 11.29296875 8.30078125 C11 11 11 11 9.6796875 12.86328125 C8 14 8 14 4.9375 13.875 C2 13 2 13 0 10 C-0.1953125 7.51953125 -0.1953125 7.51953125 -0.125 4.8125 C-0.10695312 3.91144531 -0.08890625 3.01039063 -0.0703125 2.08203125 C-0.04710937 1.39496094 -0.02390625 0.70789063 0 0 Z " fill="#626262" transform="translate(210,277)"/>
<path d="M0 0 C1.65 0 3.3 0 5 0 C5.33 0.66 5.66 1.32 6 2 C8.64 2 11.28 2 14 2 C14 2.66 14 3.32 14 4 C11.69 4.33 9.38 4.66 7 5 C7 5.33 7 5.66 7 6 C8.65 6.33 10.3 6.66 12 7 C12 7.33 12 7.66 12 8 C10.56138706 7.91253716 9.12402492 7.80434652 7.6875 7.6875 C6.88699219 7.62949219 6.08648437 7.57148438 5.26171875 7.51171875 C2.5643908 6.90144248 1.59071353 6.24964988 0 4 C0 2.68 0 1.36 0 0 Z " fill="#3A6F85" transform="translate(210,258)"/>
<path d="M0 0 C0 3.3 0 6.6 0 10 C-0.33 10 -0.66 10 -1 10 C-1 7.03 -1 4.06 -1 1 C-3.53884453 2.15565651 -3.53884453 2.15565651 -6 4 C-6.88658466 6.59122743 -6.88658466 6.59122743 -7 9 C-8.875 9.625 -8.875 9.625 -11 10 C-11.66 9.34 -12.32 8.68 -13 8 C-10.14285271 2.12697501 -6.51752775 0 0 0 Z " fill="#F4BB2E" transform="translate(153,189)"/>
<path d="M0 0 C0.66 0 1.32 0 2 0 C1.67 3.63 1.34 7.26 1 11 C-0.98 11 -2.96 11 -5 11 C-5 9.02 -5 7.04 -5 5 C-3.68 5 -2.36 5 -1 5 C-0.67 3.35 -0.34 1.7 0 0 Z " fill="#F1962B" transform="translate(412,254)"/>
<path d="M0 0 C2.31 0 4.62 0 7 0 C6 1 5 2 4 3 C7.63 4.32 11.26 5.64 15 7 C14.67 7.99 14.34 8.98 14 10 C13.43152344 9.72285156 12.86304688 9.44570312 12.27734375 9.16015625 C7.43946147 6.89063217 3.32801588 5.45344816 -2 5 C-2 4.01 -2 3.02 -2 2 C-1.34 2 -0.68 2 0 2 C0 1.34 0 0.68 0 0 Z " fill="#3BC7AD" transform="translate(140,236)"/>
<path d="M0 0 C3.00024947 -0.05444001 5.99949039 -0.0938836 9 -0.125 C9.83917969 -0.14175781 10.67835938 -0.15851563 11.54296875 -0.17578125 C17.05254877 -0.21849117 21.71048292 0.44497993 27 2 C27 2.33 27 2.66 27 3 C26.39671875 2.98839844 25.7934375 2.97679687 25.171875 2.96484375 C24.37265625 2.95582031 23.5734375 2.94679687 22.75 2.9375 C21.96109375 2.92589844 21.1721875 2.91429687 20.359375 2.90234375 C18.09308998 2.99614694 16.1711105 3.36758937 14 4 C13.67 3.34 13.34 2.68 13 2 C11.783125 2.020625 10.56625 2.04125 9.3125 2.0625 C6.08022678 2.06824116 3.15065259 1.78766315 0 1 C0 0.67 0 0.34 0 0 Z " fill="#449C40" transform="translate(134,220)"/>
<path d="M0 0 C1.65 0 3.3 0 5 0 C5.33 0.99 5.66 1.98 6 3 C4.35 2.67 2.7 2.34 1 2 C2.39195915 4.7839183 4.15575779 4.97898997 7 6 C6.67 7.32 6.34 8.64 6 10 C4.02 10.33 2.04 10.66 0 11 C-0.33 10.01 -0.66 9.02 -1 8 C1.97 8.495 1.97 8.495 5 9 C3.60804085 6.2160817 1.84424221 6.02101003 -1 5 C-0.67 3.35 -0.34 1.7 0 0 Z " fill="#6A6B6B" transform="translate(412,280)"/>
<path d="M0 0 C1.78409802 3.06246747 2.22880021 5.22079273 2.125 8.75 C2.10695313 9.54921875 2.08890625 10.3484375 2.0703125 11.171875 C2.03550781 12.07679688 2.03550781 12.07679688 2 13 C0.68 13 -0.64 13 -2 13 C-2 9.04 -2 5.08 -2 1 C-1.34 0.67 -0.68 0.34 0 0 Z " fill="#0D5773" transform="translate(264,252)"/>
<path d="M0 0 C0.99 0.33 1.98 0.66 3 1 C3.33 2.98 3.66 4.96 4 7 C4.66 7 5.32 7 6 7 C6.185625 5.5459375 6.185625 5.5459375 6.375 4.0625 C6.58125 3.051875 6.7875 2.04125 7 1 C7.66 0.67 8.32 0.34 9 0 C8.40699575 4.86263484 7.2799171 8.69348993 5 13 C2.8125 13.9375 2.8125 13.9375 1 14 C1.66 13.34 2.32 12.68 3 12 C2.53128597 7.8987522 1.16243456 3.95227751 0 0 Z " fill="#696969" transform="translate(356,280)"/>
<path d="M0 0 C1.32 0 2.64 0 4 0 C4 2.97 4 5.94 4 9 C3.34 7.68 2.68 6.36 2 5 C1.67 10.94 1.34 16.88 1 23 C1.99 23.33 2.98 23.66 4 24 C2.68 24 1.36 24 0 24 C0 16.08 0 8.16 0 0 Z " fill="#12566D" transform="translate(250,241)"/>
<path d="M0 0 C0.99 0 1.98 0 3 0 C1.71166968 2.70133777 0.2653012 5.10643472 -1.4375 7.5625 C-4.50730552 12.36701811 -5.75297055 17.48468274 -7 23 C-7.33 23 -7.66 23 -8 23 C-8.32744215 17.45483833 -7.39248341 13.73780396 -5.125 8.6875 C-4.85558594 8.06810547 -4.58617188 7.44871094 -4.30859375 6.81054688 C-3.10982366 4.11769991 -2.10081924 2.10081924 0 0 Z " fill="#10743F" transform="translate(111,254)"/>
<path d="M0 0 C-0.66 0 -1.32 0 -2 0 C-2 0.99 -2 1.98 -2 3 C-1.34 3.33 -0.68 3.66 0 4 C-3.96 5.98 -3.96 5.98 -8 8 C-9.04187157 4.87438528 -9.23843794 3.95319818 -8 1 C-5.08518252 -1.1107299 -3.34823603 -1.19579858 0 0 Z " fill="#32BD9D" transform="translate(140,238)"/>
<path d="M0 0 C0.66 0 1.32 0 2 0 C3.4606285 2.64738916 4 3.89448334 4 7 C4.66 7 5.32 7 6 7 C6.185625 5.5459375 6.185625 5.5459375 6.375 4.0625 C6.58125 3.051875 6.7875 2.04125 7 1 C7.66 0.67 8.32 0.34 9 0 C8.40699575 4.86263484 7.2799171 8.69348993 5 13 C2.8125 13.9375 2.8125 13.9375 1 14 C1.66 13.34 2.32 12.68 3 12 C2.53128597 7.8987522 1.16243456 3.95227751 0 0 Z " fill="#6A6A6A" transform="translate(329,280)"/>
<path d="M0 0 C1.65 0 3.3 0 5 0 C5.33 0.99 5.66 1.98 6 3 C4.35 2.67 2.7 2.34 1 2 C2.25541557 4.51083114 3.50063488 4.87125446 6 6 C5.67 7.65 5.34 9.3 5 11 C3.35 11 1.7 11 0 11 C-0.33 10.01 -0.66 9.02 -1 8 C1.97 8.495 1.97 8.495 5 9 C3.60804085 6.2160817 1.84424221 6.02101003 -1 5 C-0.67 3.35 -0.34 1.7 0 0 Z " fill="#6F6F6F" transform="translate(368,280)"/>
<path d="M0 0 C3.65316671 1.24976756 4.78065836 1.67098753 7 5 C5.35 5 3.7 5 2 5 C1.67 5.99 1.34 6.98 1 8 C-0.98 6.68 -2.96 5.36 -5 4 C-3.35 2.68 -1.7 1.36 0 0 Z " fill="#F2BC2F" transform="translate(150,249)"/>
<path d="M0 0 C1.32 0 2.64 0 4 0 C4 0.66 4 1.32 4 2 C4.99 1.34 5.98 0.68 7 0 C8.32 0 9.64 0 11 0 C11 1.65 11 3.3 11 5 C9.02 5.33 7.04 5.66 5 6 C4.67 5.34 4.34 4.68 4 4 C2.68 4 1.36 4 0 4 C0 2.68 0 1.36 0 0 Z " fill="#40778B" transform="translate(317,247)"/>
<path d="M0 0 C0.66 0 1.32 0 2 0 C2 3.96 2 7.92 2 12 C4.31 12 6.62 12 9 12 C9 12.66 9 13.32 9 14 C6.03 14 3.06 14 0 14 C0 9.38 0 4.76 0 0 Z " fill="#6B6B6B" transform="translate(278,277)"/>
<path d="M0 0 C0.99 0.33 1.98 0.66 3 1 C3 4.3 3 7.6 3 11 C1.68 11 0.36 11 -1 11 C-1.02688151 9.35425434 -1.04634123 7.70838587 -1.0625 6.0625 C-1.07410156 5.14597656 -1.08570313 4.22945313 -1.09765625 3.28515625 C-1 1 -1 1 0 0 Z " fill="#ED8F24" transform="translate(359,254)"/>
<path d="M0 0 C2.33294775 -0.04241723 4.66702567 -0.04092937 7 0 C8 1 8 1 8.09765625 3.06640625 C8.08605469 3.89011719 8.07445312 4.71382813 8.0625 5.5625 C8.05347656 6.38878906 8.04445312 7.21507812 8.03515625 8.06640625 C8.02355469 8.70449219 8.01195312 9.34257812 8 10 C7.67 10 7.34 10 7 10 C6.67 7.69 6.34 5.38 6 3 C4.68 2.67 3.36 2.34 2 2 C2 4.97 2 7.94 2 11 C1.34 11 0.68 11 0 11 C0 7.37 0 3.74 0 0 Z " fill="#606060" transform="translate(224,280)"/>
<path d="M0 0 C0.33 0 0.66 0 1 0 C1 3.96 1 7.92 1 12 C-0.65 12 -2.3 12 -4 12 C-4 9.69 -4 7.38 -4 5 C-3.01 4.67 -2.02 4.34 -1 4 C-0.26676204 1.98491642 -0.26676204 1.98491642 0 0 Z " fill="#0C526D" transform="translate(312,253)"/>
<path d="M0 0 C2.375 -0.125 2.375 -0.125 5 0 C7 2 7 2 7.1953125 3.9453125 C7.13020833 5.96354167 7.06510417 7.98177083 7 10 C6.34 10 5.68 10 5 10 C5 8.68 5 7.36 5 6 C2.13275314 6.57344937 1.1385485 6.8614515 -1 9 C-0.67 7.68 -0.34 6.36 0 5 C0.639375 4.87625 1.27875 4.7525 1.9375 4.625 C2.618125 4.41875 3.29875 4.2125 4 4 C4.33 3.34 4.66 2.68 5 2 C3.02 2.33 1.04 2.66 -1 3 C-0.67 2.01 -0.34 1.02 0 0 Z " fill="#606060" transform="translate(313,280)"/>
<path d="M0 0 C1.98 0 3.96 0 6 0 C6 0.66 6 1.32 6 2 C5.01 2 4.02 2 3 2 C3 4.97 3 7.94 3 11 C2.01 11 1.02 11 0 11 C0 7.37 0 3.74 0 0 Z " fill="#929292" transform="translate(322,280)"/>
<path d="M0 0 C0.66 0 1.32 0 2 0 C2 0.66 2 1.32 2 2 C2.66 2 3.32 2 4 2 C4 5.3 4 8.6 4 12 C2.68 12 1.36 12 0 12 C-0.19477739 10.37585622 -0.38059458 8.75063577 -0.5625 7.125 C-0.66691406 6.22007812 -0.77132813 5.31515625 -0.87890625 4.3828125 C-1 2 -1 2 0 0 Z " fill="#797979" transform="translate(377,278)"/>
<path d="M0 0 C3.0625 0.1875 3.0625 0.1875 5.0625 2.1875 C4.6875 4.3125 4.6875 4.3125 4.0625 6.1875 C2.7425 6.5175 1.4225 6.8475 0.0625 7.1875 C-0.22625 6.56875 -0.515 5.95 -0.8125 5.3125 C-1.87470042 3.05424235 -1.87470042 3.05424235 -3.9375 1.1875 C-2.9375 0.1875 -2.9375 0.1875 0 0 Z " fill="#357083" transform="translate(302.9375,254.8125)"/>
<path d="M0 0 C-0.66 0.66 -1.32 1.32 -2 2 C-2.99 2 -3.98 2 -5 2 C-5.33 2.66 -5.66 3.32 -6 4 C-7.66666667 4.33333333 -9.33333333 4.66666667 -11 5 C-11.33 5.66 -11.66 6.32 -12 7 C-14.32156597 7.40729228 -16.6568787 7.74438677 -19 8 C-14.81130107 4.33488844 -5.85629169 -2.92814585 0 0 Z " fill="#4E9A4F" transform="translate(132,222)"/>
<path d="M0 0 C1.67542976 0.28604898 3.34385343 0.61781233 5 1 C5 2.65 5 4.3 5 6 C3.34385343 6.38218767 1.67542976 6.71395102 0 7 C-1 6 -1 6 -1.125 3.5 C-1 1 -1 1 0 0 Z " fill="#EEEEEE" transform="translate(264,282)"/>
<path d="M0 0 C1.32 0 2.64 0 4 0 C4 0.66 4 1.32 4 2 C3.01 2 2.02 2 1 2 C1 2.66 1 3.32 1 4 C1.66 4 2.32 4 3 4 C3 4.66 3 5.32 3 6 C2.34 6 1.68 6 1 6 C1 8.64 1 11.28 1 14 C0.34 14 -0.32 14 -1 14 C-1.22331199 12.41870971 -1.42804644 10.83478911 -1.625 9.25 C-1.74101562 8.36828125 -1.85703125 7.4865625 -1.9765625 6.578125 C-2.00207817 3.77140122 -1.44843844 2.36615134 0 0 Z " fill="#666666" transform="translate(241,276)"/>
<path d="M0 0 C0.33 0 0.66 0 1 0 C1.125 3.375 1.125 3.375 1 7 C-1 9 -1 9 -2.9453125 9.1953125 C-4.96354167 9.13020833 -6.98177083 9.06510417 -9 9 C-9 8.01 -9 7.02 -9 6 C-5.535 5.505 -5.535 5.505 -2 5 C-1.34 3.35 -0.68 1.7 0 0 Z " fill="#0B546E" transform="translate(226,256)"/>
<path d="M0 0 C0.226875 0.61875 0.45375 1.2375 0.6875 1.875 C2.37929835 4.61410209 3.99244161 5.05024472 7 6 C7 6.66 7 7.32 7 8 C4.03 7.505 4.03 7.505 1 7 C0.67 7.66 0.34 8.32 0 9 C-0.99 9 -1.98 9 -3 9 C-2.4140625 2.84765625 -2.4140625 2.84765625 -2 1 C-1.34 0.67 -0.68 0.34 0 0 Z " fill="#CECECE" transform="translate(410,281)"/>
<path d="M0 0 C0.33 0 0.66 0 1 0 C1 3.3 1 6.6 1 10 C-0.32 10.33 -1.64 10.66 -3 11 C-3 10.34 -3 9.68 -3 9 C-4.65 8.67 -6.3 8.34 -8 8 C-8 7.34 -8 6.68 -8 6 C-4.535 5.505 -4.535 5.505 -1 5 C-0.67 3.35 -0.34 1.7 0 0 Z " fill="#E6E6E7" transform="translate(393,280)"/>
<path d="M0 0 C0.99 0.33 1.98 0.66 3 1 C3 3.97 3 6.94 3 10 C1.68 9.67 0.36 9.34 -1 9 C-1.09765625 2.84765625 -1.09765625 2.84765625 -1 1 C-0.67 0.67 -0.34 0.34 0 0 Z " fill="#165973" transform="translate(283,251)"/>
<path d="M0 0 C1.74271938 2.297221 3.39911152 4.59866729 5 7 C4.34 7 3.68 7 3 7 C3 7.66 3 8.32 3 9 C0.36 8.34 -2.28 7.68 -5 7 C-4.67 6.01 -4.34 5.02 -4 4 C-3.01 3.67 -2.02 3.34 -1 3 C-0.67 2.01 -0.34 1.02 0 0 Z " fill="#1A6B83" transform="translate(184,286)"/>
<path d="M0 0 C0 0.33 0 0.66 0 1 C-1.65 1.33 -3.3 1.66 -5 2 C-3.68 2.33 -2.36 2.66 -1 3 C-1.33 3.66 -1.66 4.32 -2 5 C-4.06640625 5.4140625 -4.06640625 5.4140625 -6.5625 5.625 C-7.38878906 5.69976562 -8.21507812 5.77453125 -9.06640625 5.8515625 C-10.02353516 5.92503906 -10.02353516 5.92503906 -11 6 C-10.6875 4.125 -10.6875 4.125 -10 2 C-6.3558226 -0.4294516 -4.28758728 -0.16179575 0 0 Z " fill="#3E7285" transform="translate(309,247)"/>
<path d="M0 0 C5.12583611 -0.10251672 9.94997778 -0.03590199 15 1 C12.31547973 2.67782517 9.97082759 3.2135158 6.875 3.5625 C3.21099576 3.75115044 3.21099576 3.75115044 1 5 C0.67 3.35 0.34 1.7 0 0 Z " fill="#30A23F" transform="translate(129,234)"/>
<path d="M0 0 C6.35051546 -0.36637589 6.35051546 -0.36637589 9.4375 1.375 C11 3 11 3 11 5 C10.01 5 9.02 5 8 5 C8 7.64 8 10.28 8 13 C7.67 13 7.34 13 7 13 C6.855625 11.906875 6.71125 10.81375 6.5625 9.6875 C6.11711896 6.06877013 6.11711896 6.06877013 5 3 C5.33 2.34 5.66 1.68 6 1 C4.02 1 2.04 1 0 1 C0 0.67 0 0.34 0 0 Z " fill="#F2A43E" transform="translate(389,247)"/>
<path d="M0 0 C0.99 0.66 1.98 1.32 3 2 C3.40843923 4.71203652 3.13336867 7.2437142 3 10 C1.02 10.33 -0.96 10.66 -3 11 C-2.34 10.34 -1.68 9.68 -1 9 C-0.95833998 6.6670386 -0.95833998 4.3329614 -1 2 C-0.67 1.34 -0.34 0.68 0 0 Z " fill="#E2E2E2" transform="translate(381,280)"/>
<path d="M0 0 C2.475 0.495 2.475 0.495 5 1 C5 2.65 5 4.3 5 6 C3.35 6.33 1.7 6.66 0 7 C0 4.69 0 2.38 0 0 Z " fill="#F4F4F4" transform="translate(296,282)"/>
<path d="M0 0 C0.66 1.32 1.32 2.64 2 4 C1.34 4 0.68 4 0 4 C0.20625 5.11375 0.4125 6.2275 0.625 7.375 C0.74875 8.57125 0.8725 9.7675 1 11 C0.34 11.66 -0.32 12.32 -1 13 C-1.39764263 14.98821313 -1.73775349 16.98944339 -2 19 C-2.33 19 -2.66 19 -3 19 C-3.38614349 12.1781317 -2.00865708 6.50422293 0 0 Z " fill="#2D7041" transform="translate(92,259)"/>
<path d="M0 0 C5.47826087 -0.36521739 5.47826087 -0.36521739 7.875 1.3125 C9 3 9 3 9 6 C7.35 6 5.7 6 4 6 C3.896875 5.360625 3.79375 4.72125 3.6875 4.0625 C3.460625 3.381875 3.23375 2.70125 3 2 C2.01 1.67 1.02 1.34 0 1 C0 0.67 0 0.34 0 0 Z " fill="#1C6074" transform="translate(238,248)"/>
<path d="M0 0 C0.99 0.33 1.98 0.66 3 1 C3 3.64 3 6.28 3 9 C2.01 9.33 1.02 9.66 0 10 C-0.33 9.67 -0.66 9.34 -1 9 C-0.91062197 7.47480724 -0.75462854 5.95318071 -0.5625 4.4375 C-0.46066406 3.61121094 -0.35882813 2.78492188 -0.25390625 1.93359375 C-0.17011719 1.29550781 -0.08632812 0.65742188 0 0 Z " fill="#135871" transform="translate(232,252)"/>
<path d="M0 0 C2.64 0 5.28 0 8 0 C8 1.32 8 2.64 8 4 C5.03 4 2.06 4 -1 4 C-0.67 2.68 -0.34 1.36 0 0 Z " fill="#F09E39" transform="translate(364,252)"/>
<path d="M0 0 C1.32 0 2.64 0 4 0 C3.67 2.97 3.34 5.94 3 9 C2.01 9 1.02 9 0 9 C0 6.03 0 3.06 0 0 Z " fill="#F79B24" transform="translate(377,241)"/>
<path d="M0 0 C1.98 0 3.96 0 6 0 C6 0.66 6 1.32 6 2 C5.01 2.33 4.02 2.66 3 3 C2.67 5.64 2.34 8.28 2 11 C1.34 11 0.68 11 0 11 C0 7.37 0 3.74 0 0 Z " fill="#7A7A7A" transform="translate(305,280)"/>
<path d="M0 0 C1.32 0 2.64 0 4 0 C4 2.31 4 4.62 4 7 C2.68 7.33 1.36 7.66 0 8 C0 5.36 0 2.72 0 0 Z " fill="#F0981F" transform="translate(397,252)"/>
<path d="M0 0 C1.65 0 3.3 0 5 0 C5.66 1.98 6.32 3.96 7 6 C5.68 5.67 4.36 5.34 3 5 C2.67 5.99 2.34 6.98 2 8 C1.34 5.36 0.68 2.72 0 0 Z " fill="#316B82" transform="translate(337,247)"/>
<path d="M0 0 C8.11722488 -0.62440191 8.11722488 -0.62440191 11.5625 1.8125 C13 4 13 4 13 7 C11.35 7 9.7 7 8 7 C8 5.02 8 3.04 8 1 C5.36 1 2.72 1 0 1 C0 0.67 0 0.34 0 0 Z " fill="#356B7F" transform="translate(215,241)"/>
<path d="M0 0 C0.33 0 0.66 0 1 0 C1.12375 0.969375 1.2475 1.93875 1.375 2.9375 C1.58125 3.948125 1.7875 4.95875 2 6 C2.66 6.33 3.32 6.66 4 7 C3.5 8.9375 3.5 8.9375 2 11 C-0.69658452 11.68790422 -3.2017019 11.81946464 -6 12 C-4 11 -2 10 0 9 C-0.185625 8.443125 -0.37125 7.88625 -0.5625 7.3125 C-1.07551165 4.600867 -0.6640724 2.65628961 0 0 Z " fill="#3C7084" transform="translate(281,254)"/>
<path d="M0 0 C2.0625 1.4375 2.0625 1.4375 4 4 C4.05823431 7.07583023 3.59222907 9.98735648 3 13 C2.67 13 2.34 13 2 13 C2 10.69 2 8.38 2 6 C1.34 6 0.68 6 0 6 C0 6.99 0 7.98 0 9 C-0.66 9 -1.32 9 -2 9 C-1.34 6.03 -0.68 3.06 0 0 Z " fill="#F0A951" transform="translate(422,250)"/>
<path d="M0 0 C0.33 0 0.66 0 1 0 C1 7.26 1 14.52 1 22 C0.01 22 -0.98 22 -2 22 C-1.505 20.515 -1.505 20.515 -1 19 C-0.85426942 17.52034074 -0.75336732 16.03596157 -0.68359375 14.55078125 C-0.64169922 13.70322266 -0.59980469 12.85566406 -0.55664062 11.98242188 C-0.49766602 10.66081055 -0.49766602 10.66081055 -0.4375 9.3125 C-0.39431641 8.41982422 -0.35113281 7.52714844 -0.30664062 6.60742188 C-0.20064647 4.40509892 -0.09857949 2.20266527 0 0 Z " fill="#0E4F6C" transform="translate(333,243)"/>
<path d="M0 0 C4.75 0.875 4.75 0.875 7 2 C7 2.99 7 3.98 7 5 C5.68 5 4.36 5 3 5 C2.34 5.66 1.68 6.32 1 7 C0.67 4.69 0.34 2.38 0 0 Z " fill="#22979F" transform="translate(170,267)"/>
<path d="M0 0 C0.66 0 1.32 0 2 0 C3 3 3 3 3 7 C1.68 7.33 0.36 7.66 -1 8 C-1.33 6.35 -1.66 4.7 -2 3 C-1.34 3 -0.68 3 0 3 C0 2.01 0 1.02 0 0 Z " fill="#18A099" transform="translate(115,257)"/>
<path d="M0 0 C1.65 0 3.3 0 5 0 C4.34 2.97 3.68 5.94 3 9 C2.67 8.01 2.34 7.02 2 6 C1.34 6 0.68 6 0 6 C0.66666667 4.66666667 1.33333333 3.33333333 2 2 C1.01 2.33 0.02 2.66 -1 3 C-0.67 2.01 -0.34 1.02 0 0 Z " fill="#467587" transform="translate(350,247)"/>
<path d="M0 0 C2.64 0 5.28 0 8 0 C8 0.66 8 1.32 8 2 C8.66 2 9.32 2 10 2 C9.67 2.66 9.34 3.32 9 4 C6.4375 4.625 6.4375 4.625 4 5 C4 4.34 4 3.68 4 3 C2.68 2.34 1.36 1.68 0 1 C0 0.67 0 0.34 0 0 Z " fill="#2DAC9B" transform="translate(173,235)"/>
<path d="M0 0 C0.33 0 0.66 0 1 0 C1.66 4.62 2.32 9.24 3 14 C2.01 14 1.02 14 0 14 C0 9.38 0 4.76 0 0 Z " fill="#176A6D" transform="translate(102,280)"/>
<path d="M0 0 C1.65 0 3.3 0 5 0 C5.33 1.65 5.66 3.3 6 5 C3.03 4.505 3.03 4.505 0 4 C0 2.68 0 1.36 0 0 Z " fill="#236379" transform="translate(210,258)"/>
<path d="M0 0 C0 0.99 0 1.98 0 3 C-6.625 3.25 -6.625 3.25 -10 1 C-3.71428571 -1.42857143 -3.71428571 -1.42857143 0 0 Z " fill="#E6EEF2" transform="translate(308,252)"/>
<path d="M0 0 C2.97 0.495 2.97 0.495 6 1 C6 1.66 6 2.32 6 3 C1.05 4.485 1.05 4.485 -4 6 C-3.67 5.01 -3.34 4.02 -3 3 C-2.34 3 -1.68 3 -1 3 C-0.67 2.01 -0.34 1.02 0 0 Z " fill="#F7B811" transform="translate(136,249)"/>
<path d="M0 0 C0 1.98 0 3.96 0 6 C-1.65 6 -3.3 6 -5 6 C-4.625 3.5625 -4.625 3.5625 -4 1 C-2 0 -2 0 0 0 Z " fill="#24B794" transform="translate(132,240)"/>
<path d="M0 0 C0.66 0 1.32 0 2 0 C2.08226668 3.04386724 1.97608217 5.07175348 1 8 C-0.32 7.67 -1.64 7.34 -3 7 C-2.01 4.69 -1.02 2.38 0 0 Z " fill="#064418" transform="translate(99,287)"/>
<path d="M0 0 C0.33 0 0.66 0 1 0 C1 1.65 1 3.3 1 5 C0.01 4.67 -0.98 4.34 -2 4 C-2 4.66 -2 5.32 -2 6 C-2.99 6 -3.98 6 -5 6 C-5 4.35 -5 2.7 -5 1 C-2.525 1.495 -2.525 1.495 0 2 C0 1.34 0 0.68 0 0 Z " fill="#F49022" transform="translate(142,200)"/>
<path d="M0 0 C1.32 0 2.64 0 4 0 C4 1.32 4 2.64 4 4 C2.35 4.33 0.7 4.66 -1 5 C-1.33 4.34 -1.66 3.68 -2 3 C-1.34 2.01 -0.68 1.02 0 0 Z " fill="#B3B3B3" transform="translate(314,286)"/>
<path d="M0 0 C-3.01031744 0.93423645 -3.86650268 1.04449911 -7 0 C-7 0.99 -7 1.98 -7 3 C-9.97 2.505 -9.97 2.505 -13 2 C-8.93497316 -2.06502684 -5.21168103 -0.76893655 0 0 Z " fill="#F0C43D" transform="translate(149,247)"/>
<path d="M0 0 C1.32 0.66 2.64 1.32 4 2 C3.34 3.65 2.68 5.3 2 7 C1.01 6.34 0.02 5.68 -1 5 C-0.67 3.35 -0.34 1.7 0 0 Z " fill="#1FB09B" transform="translate(122,248)"/>
<path d="M0 0 C2.625 0.375 2.625 0.375 5 1 C5 3.97 5 6.94 5 10 C4.67 10 4.34 10 4 10 C3.67 7.69 3.34 5.38 3 3 C1.35 2.67 -0.3 2.34 -2 2 C-1.34 1.34 -0.68 0.68 0 0 Z " fill="#5C5C5C" transform="translate(403,280)"/>
<path d="M0 0 C-0.33 0.99 -0.66 1.98 -1 3 C-2.98 3 -4.96 3 -7 3 C-6.67 2.01 -6.34 1.02 -6 0 C-3.50907189 -1.24546405 -2.58919267 -0.7767578 0 0 Z " fill="#A9A9A9" transform="translate(259,282)"/>
<path d="M0 0 C2.34914492 2.34914492 2.73140357 3.95679446 3.625 7.125 C3.88539063 8.03507812 4.14578125 8.94515625 4.4140625 9.8828125 C4.70410156 10.93082031 4.70410156 10.93082031 5 12 C4.01 12 3.02 12 2 12 C0.86235649 7.73383684 0 4.43513689 0 0 Z " fill="#409397" transform="translate(191,251)"/>
<path d="M0 0 C0.33 0.66 0.66 1.32 1 2 C1.99 2 2.98 2 4 2 C3.6875 3.9375 3.6875 3.9375 3 6 C2.01 6.33 1.02 6.66 0 7 C-1.04449911 3.86650268 -0.93423645 3.01031744 0 0 Z " fill="#17526B" transform="translate(344,264)"/>
<path d="M0 0 C0.99 0 1.98 0 3 0 C3 1.98 3 3.96 3 6 C1.68 5.67 0.36 5.34 -1 5 C-0.67 3.35 -0.34 1.7 0 0 Z " fill="#0F5878" transform="translate(346,261)"/>
<path d="M0 0 C0.66 0.33 1.32 0.66 2 1 C2.25 7.625 2.25 7.625 0 11 C-1.49297212 8.01405576 -1.11755228 5.29146376 -1 2 C-0.67 1.34 -0.34 0.68 0 0 Z " fill="#236179" transform="translate(270,251)"/>
<path d="M0 0 C2.31 0 4.62 0 7 0 C6.67 0.99 6.34 1.98 6 3 C4.02 3 2.04 3 0 3 C0 2.01 0 1.02 0 0 Z " fill="#F49E25" transform="translate(388,248)"/>
<path d="M0 0 C2.96404505 2.80804268 5.44499019 5.18315774 7 9 C5.68 9 4.36 9 3 9 C2.01 6.03 1.02 3.06 0 0 Z " fill="#3FA2A0" transform="translate(183,239)"/>
<path d="M0 0 C0.33 0.66 0.66 1.32 1 2 C1.66 2.33 2.32 2.66 3 3 C1.02 4.32 -0.96 5.64 -3 7 C-3.66 6.67 -4.32 6.34 -5 6 C-3.35 4.02 -1.7 2.04 0 0 Z " fill="#3F974C" transform="translate(107,234)"/>
<path d="M0 0 C-0.3125 1.875 -0.3125 1.875 -1 4 C-1.99 4.66 -2.98 5.32 -4 6 C-4 5.34 -4 4.68 -4 4 C-4.66 4 -5.32 4 -6 4 C-6 3.34 -6 2.68 -6 2 C-2.25 0 -2.25 0 0 0 Z " fill="#D5D5D5" transform="translate(248,276)"/>
<path d="M0 0 C1.65 0 3.3 0 5 0 C4.34 1.32 3.68 2.64 3 4 C1.68 3.67 0.36 3.34 -1 3 C-0.67 2.01 -0.34 1.02 0 0 Z " fill="#EFF3F6" transform="translate(303,258)"/>
<path d="M0 0 C1.32 0 2.64 0 4 0 C4 0.66 4 1.32 4 2 C4.66 2 5.32 2 6 2 C5.67 3.32 5.34 4.64 5 6 C4.67 5.34 4.34 4.68 4 4 C2.68 4 1.36 4 0 4 C0 2.68 0 1.36 0 0 Z " fill="#2E657B" transform="translate(317,247)"/>
<path d="M0 0 C2.31 0 4.62 0 7 0 C5.02 0.99 5.02 0.99 3 2 C3.66 2.66 4.32 3.32 5 4 C3.02 4 1.04 4 -1 4 C-0.67 2.68 -0.34 1.36 0 0 Z " fill="#2B6B82" transform="translate(236,247)"/>
<path d="M0 0 C2.01822917 0.06510417 4.03645833 0.13020833 6.0546875 0.1953125 C6.0546875 0.5253125 6.0546875 0.8553125 6.0546875 1.1953125 C4.4046875 1.1953125 2.7546875 1.1953125 1.0546875 1.1953125 C1.3846875 2.1853125 1.7146875 3.1753125 2.0546875 4.1953125 C0.0746875 3.5353125 -1.9053125 2.8753125 -3.9453125 2.1953125 C-1.9453125 0.1953125 -1.9453125 0.1953125 0 0 Z " fill="#22B29D" transform="translate(150.9453125,234.8046875)"/>
<path d="M0 0 C2.31 0 4.62 0 7 0 C6.01 1.485 6.01 1.485 5 3 C3.35 2.67 1.7 2.34 0 2 C0 1.34 0 0.68 0 0 Z " fill="#DFDFDF" transform="translate(385,286)"/>
<path d="M0 0 C0.99 0 1.98 0 3 0 C2.67 1.65 2.34 3.3 2 5 C1.01 5.33 0.02 5.66 -1 6 C-1.33 5.34 -1.66 4.68 -2 4 C-1.34 4 -0.68 4 0 4 C0 2.68 0 1.36 0 0 Z " fill="#F59823" transform="translate(123,267)"/>
<path d="M0 0 C0.33 0 0.66 0 1 0 C1 1.98 1 3.96 1 6 C-0.32 6.33 -1.64 6.66 -3 7 C-1.125 1.125 -1.125 1.125 0 0 Z " fill="#1A8E76" transform="translate(109,261)"/>
<path d="M0 0 C0.99 0.33 1.98 0.66 3 1 C3.6875 3.0625 3.6875 3.0625 4 5 C2.68 5 1.36 5 0 5 C0 3.35 0 1.7 0 0 Z " fill="#105B7C" transform="translate(299,257)"/>
</svg>
